ISO-10303-21;
HEADER;
/* Generated by software containing ST-Developer
 * from STEP Tools, Inc. (www.steptools.com) 
 */

FILE_DESCRIPTION(
/* description */ (''),
/* implementation_level */ '2;1');

FILE_NAME(
/* name */ 'MORSE CASE.step',
/* time_stamp */ '2026-05-02T12:47:39+04:00',
/* author */ (''),
/* organization */ (''),
/* preprocessor_version */ 'ST-DEVELOPER v20.1',
/* originating_system */ 'Autodesk Translation Framework v14.24.0.0',
/* authorisation */ '');

FILE_SCHEMA (('AUTOMOTIVE_DESIGN { 1 0 10303 214 3 1 1 }'));
ENDSEC;

DATA;
#10=MECHANICAL_DESIGN_GEOMETRIC_PRESENTATION_REPRESENTATION('',(#13),#517);
#11=SHAPE_REPRESENTATION_RELATIONSHIP('SRR','None',#524,#12);
#12=ADVANCED_BREP_SHAPE_REPRESENTATION('',(#14),#516);
#13=STYLED_ITEM('',(#533),#14);
#14=MANIFOLD_SOLID_BREP('Body1',#321);
#15=FACE_BOUND('',#40,.T.);
#16=FACE_BOUND('',#50,.T.);
#17=FACE_OUTER_BOUND('',#33,.T.);
#18=FACE_OUTER_BOUND('',#34,.T.);
#19=FACE_OUTER_BOUND('',#35,.T.);
#20=FACE_OUTER_BOUND('',#36,.T.);
#21=FACE_OUTER_BOUND('',#37,.T.);
#22=FACE_OUTER_BOUND('',#38,.T.);
#23=FACE_OUTER_BOUND('',#39,.T.);
#24=FACE_OUTER_BOUND('',#41,.T.);
#25=FACE_OUTER_BOUND('',#42,.T.);
#26=FACE_OUTER_BOUND('',#43,.T.);
#27=FACE_OUTER_BOUND('',#44,.T.);
#28=FACE_OUTER_BOUND('',#45,.T.);
#29=FACE_OUTER_BOUND('',#46,.T.);
#30=FACE_OUTER_BOUND('',#47,.T.);
#31=FACE_OUTER_BOUND('',#48,.T.);
#32=FACE_OUTER_BOUND('',#49,.T.);
#33=EDGE_LOOP('',(#205,#206,#207,#208));
#34=EDGE_LOOP('',(#209,#210,#211,#212));
#35=EDGE_LOOP('',(#213,#214,#215,#216));
#36=EDGE_LOOP('',(#217,#218,#219,#220));
#37=EDGE_LOOP('',(#221,#222,#223,#224));
#38=EDGE_LOOP('',(#225,#226,#227,#228,#229,#230,#231,#232));
#39=EDGE_LOOP('',(#233,#234,#235,#236,#237,#238,#239,#240));
#40=EDGE_LOOP('',(#241,#242,#243,#244));
#41=EDGE_LOOP('',(#245,#246,#247,#248));
#42=EDGE_LOOP('',(#249,#250,#251,#252));
#43=EDGE_LOOP('',(#253,#254,#255,#256));
#44=EDGE_LOOP('',(#257,#258,#259,#260));
#45=EDGE_LOOP('',(#261,#262,#263,#264));
#46=EDGE_LOOP('',(#265,#266,#267,#268,#269,#270));
#47=EDGE_LOOP('',(#271,#272,#273,#274));
#48=EDGE_LOOP('',(#275,#276,#277,#278,#279,#280));
#49=EDGE_LOOP('',(#281,#282,#283,#284));
#50=EDGE_LOOP('',(#285,#286,#287,#288));
#51=LINE('',#431,#93);
#52=LINE('',#433,#94);
#53=LINE('',#435,#95);
#54=LINE('',#436,#96);
#55=LINE('',#439,#97);
#56=LINE('',#441,#98);
#57=LINE('',#442,#99);
#58=LINE('',#445,#100);
#59=LINE('',#447,#101);
#60=LINE('',#448,#102);
#61=LINE('',#451,#103);
#62=LINE('',#453,#104);
#63=LINE('',#454,#105);
#64=LINE('',#457,#106);
#65=LINE('',#459,#107);
#66=LINE('',#460,#108);
#67=LINE('',#463,#109);
#68=LINE('',#465,#110);
#69=LINE('',#466,#111);
#70=LINE('',#469,#112);
#71=LINE('',#471,#113);
#72=LINE('',#472,#114);
#73=LINE('',#475,#115);
#74=LINE('',#477,#116);
#75=LINE('',#479,#117);
#76=LINE('',#480,#118);
#77=LINE('',#484,#119);
#78=LINE('',#485,#120);
#79=LINE('',#486,#121);
#80=LINE('',#489,#122);
#81=LINE('',#490,#123);
#82=LINE('',#493,#124);
#83=LINE('',#494,#125);
#84=LINE('',#496,#126);
#85=LINE('',#500,#127);
#86=LINE('',#501,#128);
#87=LINE('',#502,#129);
#88=LINE('',#505,#130);
#89=LINE('',#506,#131);
#90=LINE('',#509,#132);
#91=LINE('',#510,#133);
#92=LINE('',#512,#134);
#93=VECTOR('',#355,10.);
#94=VECTOR('',#356,10.);
#95=VECTOR('',#357,10.);
#96=VECTOR('',#358,10.);
#97=VECTOR('',#361,10.);
#98=VECTOR('',#362,10.);
#99=VECTOR('',#363,10.);
#100=VECTOR('',#366,10.);
#101=VECTOR('',#367,10.);
#102=VECTOR('',#368,10.);
#103=VECTOR('',#371,10.);
#104=VECTOR('',#372,10.);
#105=VECTOR('',#373,10.);
#106=VECTOR('',#376,10.);
#107=VECTOR('',#377,10.);
#108=VECTOR('',#378,10.);
#109=VECTOR('',#381,10.);
#110=VECTOR('',#382,10.);
#111=VECTOR('',#383,10.);
#112=VECTOR('',#386,10.);
#113=VECTOR('',#387,10.);
#114=VECTOR('',#388,10.);
#115=VECTOR('',#389,10.);
#116=VECTOR('',#390,10.);
#117=VECTOR('',#391,10.);
#118=VECTOR('',#392,10.);
#119=VECTOR('',#395,10.);
#120=VECTOR('',#396,10.);
#121=VECTOR('',#397,10.);
#122=VECTOR('',#400,10.);
#123=VECTOR('',#401,10.);
#124=VECTOR('',#404,10.);
#125=VECTOR('',#405,10.);
#126=VECTOR('',#408,10.);
#127=VECTOR('',#411,10.);
#128=VECTOR('',#412,10.);
#129=VECTOR('',#413,10.);
#130=VECTOR('',#416,10.);
#131=VECTOR('',#417,10.);
#132=VECTOR('',#420,10.);
#133=VECTOR('',#421,10.);
#134=VECTOR('',#424,10.);
#135=VERTEX_POINT('',#429);
#136=VERTEX_POINT('',#430);
#137=VERTEX_POINT('',#432);
#138=VERTEX_POINT('',#434);
#139=VERTEX_POINT('',#438);
#140=VERTEX_POINT('',#440);
#141=VERTEX_POINT('',#444);
#142=VERTEX_POINT('',#446);
#143=VERTEX_POINT('',#450);
#144=VERTEX_POINT('',#452);
#145=VERTEX_POINT('',#456);
#146=VERTEX_POINT('',#458);
#147=VERTEX_POINT('',#462);
#148=VERTEX_POINT('',#464);
#149=VERTEX_POINT('',#468);
#150=VERTEX_POINT('',#470);
#151=VERTEX_POINT('',#473);
#152=VERTEX_POINT('',#474);
#153=VERTEX_POINT('',#476);
#154=VERTEX_POINT('',#478);
#155=VERTEX_POINT('',#482);
#156=VERTEX_POINT('',#483);
#157=VERTEX_POINT('',#488);
#158=VERTEX_POINT('',#492);
#159=VERTEX_POINT('',#498);
#160=VERTEX_POINT('',#499);
#161=VERTEX_POINT('',#504);
#162=VERTEX_POINT('',#508);
#163=EDGE_CURVE('',#135,#136,#51,.T.);
#164=EDGE_CURVE('',#135,#137,#52,.T.);
#165=EDGE_CURVE('',#138,#137,#53,.T.);
#166=EDGE_CURVE('',#136,#138,#54,.T.);
#167=EDGE_CURVE('',#136,#139,#55,.T.);
#168=EDGE_CURVE('',#140,#138,#56,.T.);
#169=EDGE_CURVE('',#139,#140,#57,.T.);
#170=EDGE_CURVE('',#139,#141,#58,.T.);
#171=EDGE_CURVE('',#142,#140,#59,.T.);
#172=EDGE_CURVE('',#141,#142,#60,.T.);
#173=EDGE_CURVE('',#141,#143,#61,.T.);
#174=EDGE_CURVE('',#144,#142,#62,.T.);
#175=EDGE_CURVE('',#143,#144,#63,.T.);
#176=EDGE_CURVE('',#143,#145,#64,.T.);
#177=EDGE_CURVE('',#146,#144,#65,.T.);
#178=EDGE_CURVE('',#145,#146,#66,.T.);
#179=EDGE_CURVE('',#137,#147,#67,.T.);
#180=EDGE_CURVE('',#147,#148,#68,.T.);
#181=EDGE_CURVE('',#148,#146,#69,.T.);
#182=EDGE_CURVE('',#145,#149,#70,.T.);
#183=EDGE_CURVE('',#149,#150,#71,.T.);
#184=EDGE_CURVE('',#150,#135,#72,.T.);
#185=EDGE_CURVE('',#151,#152,#73,.T.);
#186=EDGE_CURVE('',#152,#153,#74,.T.);
#187=EDGE_CURVE('',#153,#154,#75,.T.);
#188=EDGE_CURVE('',#154,#151,#76,.T.);
#189=EDGE_CURVE('',#155,#156,#77,.T.);
#190=EDGE_CURVE('',#156,#151,#78,.T.);
#191=EDGE_CURVE('',#155,#154,#79,.T.);
#192=EDGE_CURVE('',#157,#155,#80,.T.);
#193=EDGE_CURVE('',#157,#153,#81,.T.);
#194=EDGE_CURVE('',#158,#157,#82,.T.);
#195=EDGE_CURVE('',#158,#152,#83,.T.);
#196=EDGE_CURVE('',#156,#158,#84,.T.);
#197=EDGE_CURVE('',#159,#160,#85,.T.);
#198=EDGE_CURVE('',#159,#148,#86,.T.);
#199=EDGE_CURVE('',#160,#147,#87,.T.);
#200=EDGE_CURVE('',#160,#161,#88,.T.);
#201=EDGE_CURVE('',#161,#150,#89,.T.);
#202=EDGE_CURVE('',#161,#162,#90,.T.);
#203=EDGE_CURVE('',#162,#149,#91,.T.);
#204=EDGE_CURVE('',#162,#159,#92,.T.);
#205=ORIENTED_EDGE('',*,*,#163,.F.);
#206=ORIENTED_EDGE('',*,*,#164,.T.);
#207=ORIENTED_EDGE('',*,*,#165,.F.);
#208=ORIENTED_EDGE('',*,*,#166,.F.);
#209=ORIENTED_EDGE('',*,*,#167,.F.);
#210=ORIENTED_EDGE('',*,*,#166,.T.);
#211=ORIENTED_EDGE('',*,*,#168,.F.);
#212=ORIENTED_EDGE('',*,*,#169,.F.);
#213=ORIENTED_EDGE('',*,*,#170,.F.);
#214=ORIENTED_EDGE('',*,*,#169,.T.);
#215=ORIENTED_EDGE('',*,*,#171,.F.);
#216=ORIENTED_EDGE('',*,*,#172,.F.);
#217=ORIENTED_EDGE('',*,*,#173,.F.);
#218=ORIENTED_EDGE('',*,*,#172,.T.);
#219=ORIENTED_EDGE('',*,*,#174,.F.);
#220=ORIENTED_EDGE('',*,*,#175,.F.);
#221=ORIENTED_EDGE('',*,*,#176,.F.);
#222=ORIENTED_EDGE('',*,*,#175,.T.);
#223=ORIENTED_EDGE('',*,*,#177,.F.);
#224=ORIENTED_EDGE('',*,*,#178,.F.);
#225=ORIENTED_EDGE('',*,*,#177,.T.);
#226=ORIENTED_EDGE('',*,*,#174,.T.);
#227=ORIENTED_EDGE('',*,*,#171,.T.);
#228=ORIENTED_EDGE('',*,*,#168,.T.);
#229=ORIENTED_EDGE('',*,*,#165,.T.);
#230=ORIENTED_EDGE('',*,*,#179,.T.);
#231=ORIENTED_EDGE('',*,*,#180,.T.);
#232=ORIENTED_EDGE('',*,*,#181,.T.);
#233=ORIENTED_EDGE('',*,*,#163,.T.);
#234=ORIENTED_EDGE('',*,*,#167,.T.);
#235=ORIENTED_EDGE('',*,*,#170,.T.);
#236=ORIENTED_EDGE('',*,*,#173,.T.);
#237=ORIENTED_EDGE('',*,*,#176,.T.);
#238=ORIENTED_EDGE('',*,*,#182,.T.);
#239=ORIENTED_EDGE('',*,*,#183,.T.);
#240=ORIENTED_EDGE('',*,*,#184,.T.);
#241=ORIENTED_EDGE('',*,*,#185,.T.);
#242=ORIENTED_EDGE('',*,*,#186,.T.);
#243=ORIENTED_EDGE('',*,*,#187,.T.);
#244=ORIENTED_EDGE('',*,*,#188,.T.);
#245=ORIENTED_EDGE('',*,*,#189,.T.);
#246=ORIENTED_EDGE('',*,*,#190,.T.);
#247=ORIENTED_EDGE('',*,*,#188,.F.);
#248=ORIENTED_EDGE('',*,*,#191,.F.);
#249=ORIENTED_EDGE('',*,*,#192,.T.);
#250=ORIENTED_EDGE('',*,*,#191,.T.);
#251=ORIENTED_EDGE('',*,*,#187,.F.);
#252=ORIENTED_EDGE('',*,*,#193,.F.);
#253=ORIENTED_EDGE('',*,*,#194,.T.);
#254=ORIENTED_EDGE('',*,*,#193,.T.);
#255=ORIENTED_EDGE('',*,*,#186,.F.);
#256=ORIENTED_EDGE('',*,*,#195,.F.);
#257=ORIENTED_EDGE('',*,*,#196,.T.);
#258=ORIENTED_EDGE('',*,*,#195,.T.);
#259=ORIENTED_EDGE('',*,*,#185,.F.);
#260=ORIENTED_EDGE('',*,*,#190,.F.);
#261=ORIENTED_EDGE('',*,*,#197,.F.);
#262=ORIENTED_EDGE('',*,*,#198,.T.);
#263=ORIENTED_EDGE('',*,*,#180,.F.);
#264=ORIENTED_EDGE('',*,*,#199,.F.);
#265=ORIENTED_EDGE('',*,*,#200,.F.);
#266=ORIENTED_EDGE('',*,*,#199,.T.);
#267=ORIENTED_EDGE('',*,*,#179,.F.);
#268=ORIENTED_EDGE('',*,*,#164,.F.);
#269=ORIENTED_EDGE('',*,*,#184,.F.);
#270=ORIENTED_EDGE('',*,*,#201,.F.);
#271=ORIENTED_EDGE('',*,*,#202,.F.);
#272=ORIENTED_EDGE('',*,*,#201,.T.);
#273=ORIENTED_EDGE('',*,*,#183,.F.);
#274=ORIENTED_EDGE('',*,*,#203,.F.);
#275=ORIENTED_EDGE('',*,*,#204,.F.);
#276=ORIENTED_EDGE('',*,*,#203,.T.);
#277=ORIENTED_EDGE('',*,*,#182,.F.);
#278=ORIENTED_EDGE('',*,*,#178,.T.);
#279=ORIENTED_EDGE('',*,*,#181,.F.);
#280=ORIENTED_EDGE('',*,*,#198,.F.);
#281=ORIENTED_EDGE('',*,*,#204,.T.);
#282=ORIENTED_EDGE('',*,*,#197,.T.);
#283=ORIENTED_EDGE('',*,*,#200,.T.);
#284=ORIENTED_EDGE('',*,*,#202,.T.);
#285=ORIENTED_EDGE('',*,*,#196,.F.);
#286=ORIENTED_EDGE('',*,*,#189,.F.);
#287=ORIENTED_EDGE('',*,*,#192,.F.);
#288=ORIENTED_EDGE('',*,*,#194,.F.);
#289=PLANE('',#335);
#290=PLANE('',#336);
#291=PLANE('',#337);
#292=PLANE('',#338);
#293=PLANE('',#339);
#294=PLANE('',#340);
#295=PLANE('',#341);
#296=PLANE('',#342);
#297=PLANE('',#343);
#298=PLANE('',#344);
#299=PLANE('',#345);
#300=PLANE('',#346);
#301=PLANE('',#347);
#302=PLANE('',#348);
#303=PLANE('',#349);
#304=PLANE('',#350);
#305=ADVANCED_FACE('',(#17),#289,.T.);
#306=ADVANCED_FACE('',(#18),#290,.T.);
#307=ADVANCED_FACE('',(#19),#291,.T.);
#308=ADVANCED_FACE('',(#20),#292,.T.);
#309=ADVANCED_FACE('',(#21),#293,.T.);
#310=ADVANCED_FACE('',(#22),#294,.T.);
#311=ADVANCED_FACE('',(#23,#15),#295,.T.);
#312=ADVANCED_FACE('',(#24),#296,.T.);
#313=ADVANCED_FACE('',(#25),#297,.T.);
#314=ADVANCED_FACE('',(#26),#298,.T.);
#315=ADVANCED_FACE('',(#27),#299,.T.);
#316=ADVANCED_FACE('',(#28),#300,.T.);
#317=ADVANCED_FACE('',(#29),#301,.T.);
#318=ADVANCED_FACE('',(#30),#302,.T.);
#319=ADVANCED_FACE('',(#31),#303,.T.);
#320=ADVANCED_FACE('',(#32,#16),#304,.F.);
#321=CLOSED_SHELL('',(#305,#306,#307,#308,#309,#310,#311,#312,#313,#314,
#315,#316,#317,#318,#319,#320));
#322=DERIVED_UNIT_ELEMENT(#324,1.);
#323=DERIVED_UNIT_ELEMENT(#519,-3.);
#324=(
MASS_UNIT()
NAMED_UNIT(*)
SI_UNIT(.KILO.,.GRAM.)
);
#325=DERIVED_UNIT((#322,#323));
#326=MEASURE_REPRESENTATION_ITEM('density measure',
POSITIVE_RATIO_MEASURE(7850.),#325);
#327=PROPERTY_DEFINITION_REPRESENTATION(#332,#329);
#328=PROPERTY_DEFINITION_REPRESENTATION(#333,#330);
#329=REPRESENTATION('material name',(#331),#516);
#330=REPRESENTATION('density',(#326),#516);
#331=DESCRIPTIVE_REPRESENTATION_ITEM('Steel','Steel');
#332=PROPERTY_DEFINITION('material property','material name',#526);
#333=PROPERTY_DEFINITION('material property','density of part',#526);
#334=AXIS2_PLACEMENT_3D('',#427,#351,#352);
#335=AXIS2_PLACEMENT_3D('',#428,#353,#354);
#336=AXIS2_PLACEMENT_3D('',#437,#359,#360);
#337=AXIS2_PLACEMENT_3D('',#443,#364,#365);
#338=AXIS2_PLACEMENT_3D('',#449,#369,#370);
#339=AXIS2_PLACEMENT_3D('',#455,#374,#375);
#340=AXIS2_PLACEMENT_3D('',#461,#379,#380);
#341=AXIS2_PLACEMENT_3D('',#467,#384,#385);
#342=AXIS2_PLACEMENT_3D('',#481,#393,#394);
#343=AXIS2_PLACEMENT_3D('',#487,#398,#399);
#344=AXIS2_PLACEMENT_3D('',#491,#402,#403);
#345=AXIS2_PLACEMENT_3D('',#495,#406,#407);
#346=AXIS2_PLACEMENT_3D('',#497,#409,#410);
#347=AXIS2_PLACEMENT_3D('',#503,#414,#415);
#348=AXIS2_PLACEMENT_3D('',#507,#418,#419);
#349=AXIS2_PLACEMENT_3D('',#511,#422,#423);
#350=AXIS2_PLACEMENT_3D('',#513,#425,#426);
#351=DIRECTION('axis',(0.,0.,1.));
#352=DIRECTION('refdir',(1.,0.,0.));
#353=DIRECTION('center_axis',(-1.,0.,0.));
#354=DIRECTION('ref_axis',(0.,0.,1.));
#355=DIRECTION('',(0.,0.,-1.));
#356=DIRECTION('',(0.,1.,0.));
#357=DIRECTION('',(0.,0.,1.));
#358=DIRECTION('',(0.,1.,0.));
#359=DIRECTION('center_axis',(0.,0.,-1.));
#360=DIRECTION('ref_axis',(-1.,0.,0.));
#361=DIRECTION('',(1.,0.,0.));
#362=DIRECTION('',(-1.,0.,0.));
#363=DIRECTION('',(0.,1.,0.));
#364=DIRECTION('center_axis',(-1.,0.,0.));
#365=DIRECTION('ref_axis',(0.,0.,1.));
#366=DIRECTION('',(0.,0.,-1.));
#367=DIRECTION('',(0.,0.,1.));
#368=DIRECTION('',(0.,1.,0.));
#369=DIRECTION('center_axis',(0.,0.,1.));
#370=DIRECTION('ref_axis',(1.,0.,0.));
#371=DIRECTION('',(-1.,0.,0.));
#372=DIRECTION('',(1.,0.,0.));
#373=DIRECTION('',(0.,1.,0.));
#374=DIRECTION('center_axis',(-1.,0.,0.));
#375=DIRECTION('ref_axis',(0.,0.,1.));
#376=DIRECTION('',(0.,0.,-1.));
#377=DIRECTION('',(0.,0.,1.));
#378=DIRECTION('',(0.,1.,0.));
#379=DIRECTION('center_axis',(0.,1.,0.));
#380=DIRECTION('ref_axis',(0.,0.,1.));
#381=DIRECTION('',(1.,0.,0.));
#382=DIRECTION('',(0.,0.,-1.));
#383=DIRECTION('',(-1.,0.,0.));
#384=DIRECTION('center_axis',(0.,1.,0.));
#385=DIRECTION('ref_axis',(0.,0.,1.));
#386=DIRECTION('',(-1.,0.,0.));
#387=DIRECTION('',(7.65671051465625E-17,0.,1.));
#388=DIRECTION('',(1.,0.,0.));
#389=DIRECTION('',(1.,0.,0.));
#390=DIRECTION('',(0.,0.,1.));
#391=DIRECTION('',(-1.,0.,0.));
#392=DIRECTION('',(0.,0.,-1.));
#393=DIRECTION('center_axis',(1.,0.,0.));
#394=DIRECTION('ref_axis',(0.,0.,-1.));
#395=DIRECTION('',(0.,0.,-1.));
#396=DIRECTION('',(0.,1.,0.));
#397=DIRECTION('',(0.,1.,0.));
#398=DIRECTION('center_axis',(0.,0.,-1.));
#399=DIRECTION('ref_axis',(-1.,0.,0.));
#400=DIRECTION('',(-1.,0.,0.));
#401=DIRECTION('',(0.,1.,0.));
#402=DIRECTION('center_axis',(-1.,0.,0.));
#403=DIRECTION('ref_axis',(0.,0.,1.));
#404=DIRECTION('',(0.,0.,1.));
#405=DIRECTION('',(0.,1.,0.));
#406=DIRECTION('center_axis',(0.,0.,1.));
#407=DIRECTION('ref_axis',(1.,0.,0.));
#408=DIRECTION('',(1.,0.,0.));
#409=DIRECTION('center_axis',(1.,0.,0.));
#410=DIRECTION('ref_axis',(0.,0.,-1.));
#411=DIRECTION('',(0.,0.,1.));
#412=DIRECTION('',(0.,1.,0.));
#413=DIRECTION('',(0.,1.,0.));
#414=DIRECTION('center_axis',(0.,0.,1.));
#415=DIRECTION('ref_axis',(1.,0.,0.));
#416=DIRECTION('',(-1.,0.,0.));
#417=DIRECTION('',(0.,1.,0.));
#418=DIRECTION('center_axis',(-1.,0.,7.65671051465625E-17));
#419=DIRECTION('ref_axis',(7.65671051465625E-17,0.,1.));
#420=DIRECTION('',(-7.65671051465625E-17,0.,-1.));
#421=DIRECTION('',(0.,1.,0.));
#422=DIRECTION('center_axis',(0.,0.,-1.));
#423=DIRECTION('ref_axis',(-1.,0.,0.));
#424=DIRECTION('',(1.,0.,0.));
#425=DIRECTION('center_axis',(0.,1.,0.));
#426=DIRECTION('ref_axis',(1.,0.,0.));
#427=CARTESIAN_POINT('',(0.,0.,0.));
#428=CARTESIAN_POINT('Origin',(10.25,5.,0.));
#429=CARTESIAN_POINT('',(10.25,5.,4.));
#430=CARTESIAN_POINT('',(10.25,5.,0.));
#431=CARTESIAN_POINT('',(10.25,5.,-12.5));
#432=CARTESIAN_POINT('',(10.25,15.,4.));
#433=CARTESIAN_POINT('',(10.25,5.,4.));
#434=CARTESIAN_POINT('',(10.25,15.,0.));
#435=CARTESIAN_POINT('',(10.25,15.,-54.));
#436=CARTESIAN_POINT('',(10.25,5.,0.));
#437=CARTESIAN_POINT('Origin',(50.,5.,0.));
#438=CARTESIAN_POINT('',(50.,5.,0.));
#439=CARTESIAN_POINT('',(30.125,5.,0.));
#440=CARTESIAN_POINT('',(50.,15.,0.));
#441=CARTESIAN_POINT('',(50.,15.,0.));
#442=CARTESIAN_POINT('',(50.,5.,0.));
#443=CARTESIAN_POINT('Origin',(50.,5.,-50.));
#444=CARTESIAN_POINT('',(50.,5.,-50.));
#445=CARTESIAN_POINT('',(50.,5.,-37.5));
#446=CARTESIAN_POINT('',(50.,15.,-50.));
#447=CARTESIAN_POINT('',(50.,15.,-50.));
#448=CARTESIAN_POINT('',(50.,5.,-50.));
#449=CARTESIAN_POINT('Origin',(10.25,5.,-50.));
#450=CARTESIAN_POINT('',(10.25,5.,-50.));
#451=CARTESIAN_POINT('',(10.25,5.,-50.));
#452=CARTESIAN_POINT('',(10.25,15.,-50.));
#453=CARTESIAN_POINT('',(-29.5,15.,-50.));
#454=CARTESIAN_POINT('',(10.25,5.,-50.));
#455=CARTESIAN_POINT('Origin',(10.25,5.,-54.));
#456=CARTESIAN_POINT('',(10.25,5.,-54.));
#457=CARTESIAN_POINT('',(10.25,5.,-39.5));
#458=CARTESIAN_POINT('',(10.25,15.,-54.));
#459=CARTESIAN_POINT('',(10.25,15.,-54.));
#460=CARTESIAN_POINT('',(10.25,5.,-54.));
#461=CARTESIAN_POINT('Origin',(32.125,15.,-25.));
#462=CARTESIAN_POINT('',(54.,15.,4.));
#463=CARTESIAN_POINT('',(-33.5,15.,4.));
#464=CARTESIAN_POINT('',(54.,15.,-54.));
#465=CARTESIAN_POINT('',(54.,15.,4.));
#466=CARTESIAN_POINT('',(54.,15.,-54.));
#467=CARTESIAN_POINT('Origin',(10.25,5.,-25.));
#468=CARTESIAN_POINT('',(-33.5,5.,-54.));
#469=CARTESIAN_POINT('',(-33.5,5.,-54.));
#470=CARTESIAN_POINT('',(-33.5,5.,4.));
#471=CARTESIAN_POINT('',(-33.5,5.,4.));
#472=CARTESIAN_POINT('',(54.,5.,4.));
#473=CARTESIAN_POINT('',(-26.5,5.,-47.));
#474=CARTESIAN_POINT('',(47.,5.,-47.));
#475=CARTESIAN_POINT('',(-26.5,5.,-47.));
#476=CARTESIAN_POINT('',(47.,5.,-3.));
#477=CARTESIAN_POINT('',(47.,5.,-47.));
#478=CARTESIAN_POINT('',(-26.5,5.,-3.));
#479=CARTESIAN_POINT('',(47.,5.,-3.));
#480=CARTESIAN_POINT('',(-26.5,5.,-3.));
#481=CARTESIAN_POINT('Origin',(-26.5,0.,-3.));
#482=CARTESIAN_POINT('',(-26.5,0.,-3.));
#483=CARTESIAN_POINT('',(-26.5,0.,-47.));
#484=CARTESIAN_POINT('',(-26.5,0.,-3.));
#485=CARTESIAN_POINT('',(-26.5,0.,-47.));
#486=CARTESIAN_POINT('',(-26.5,0.,-3.));
#487=CARTESIAN_POINT('Origin',(47.,0.,-3.));
#488=CARTESIAN_POINT('',(47.,0.,-3.));
#489=CARTESIAN_POINT('',(47.,0.,-3.));
#490=CARTESIAN_POINT('',(47.,0.,-3.));
#491=CARTESIAN_POINT('Origin',(47.,0.,-47.));
#492=CARTESIAN_POINT('',(47.,0.,-47.));
#493=CARTESIAN_POINT('',(47.,0.,-47.));
#494=CARTESIAN_POINT('',(47.,0.,-47.));
#495=CARTESIAN_POINT('Origin',(-26.5,0.,-47.));
#496=CARTESIAN_POINT('',(-26.5,0.,-47.));
#497=CARTESIAN_POINT('Origin',(54.,0.,4.));
#498=CARTESIAN_POINT('',(54.,0.,-54.));
#499=CARTESIAN_POINT('',(54.,0.,4.));
#500=CARTESIAN_POINT('',(54.,0.,-54.));
#501=CARTESIAN_POINT('',(54.,0.,-54.));
#502=CARTESIAN_POINT('',(54.,0.,4.));
#503=CARTESIAN_POINT('Origin',(-33.5,0.,4.));
#504=CARTESIAN_POINT('',(-33.5,0.,4.));
#505=CARTESIAN_POINT('',(54.,0.,4.));
#506=CARTESIAN_POINT('',(-33.5,0.,4.));
#507=CARTESIAN_POINT('Origin',(-33.5,0.,-54.));
#508=CARTESIAN_POINT('',(-33.5,0.,-54.));
#509=CARTESIAN_POINT('',(-33.5,0.,4.));
#510=CARTESIAN_POINT('',(-33.5,0.,-54.));
#511=CARTESIAN_POINT('Origin',(54.,0.,-54.));
#512=CARTESIAN_POINT('',(-33.5,0.,-54.));
#513=CARTESIAN_POINT('Origin',(10.25,0.,-25.));
#514=UNCERTAINTY_MEASURE_WITH_UNIT(LENGTH_MEASURE(0.01),#518,
'DISTANCE_ACCURACY_VALUE',
'Maximum model space distance between geometric entities at asserted c
onnectivities');
#515=UNCERTAINTY_MEASURE_WITH_UNIT(LENGTH_MEASURE(0.01),#518,
'DISTANCE_ACCURACY_VALUE',
'Maximum model space distance between geometric entities at asserted c
onnectivities');
#516=(
GEOMETRIC_REPRESENTATION_CONTEXT(3)
GLOBAL_UNCERTAINTY_ASSIGNED_CONTEXT((#514))
GLOBAL_UNIT_ASSIGNED_CONTEXT((#518,#520,#521))
REPRESENTATION_CONTEXT('','3D')
);
#517=(
GEOMETRIC_REPRESENTATION_CONTEXT(3)
GLOBAL_UNCERTAINTY_ASSIGNED_CONTEXT((#515))
GLOBAL_UNIT_ASSIGNED_CONTEXT((#518,#520,#521))
REPRESENTATION_CONTEXT('','3D')
);
#518=(
LENGTH_UNIT()
NAMED_UNIT(*)
SI_UNIT(.MILLI.,.METRE.)
);
#519=(
LENGTH_UNIT()
NAMED_UNIT(*)
SI_UNIT($,.METRE.)
);
#520=(
NAMED_UNIT(*)
PLANE_ANGLE_UNIT()
SI_UNIT($,.RADIAN.)
);
#521=(
NAMED_UNIT(*)
SI_UNIT($,.STERADIAN.)
SOLID_ANGLE_UNIT()
);
#522=SHAPE_DEFINITION_REPRESENTATION(#523,#524);
#523=PRODUCT_DEFINITION_SHAPE('',$,#526);
#524=SHAPE_REPRESENTATION('',(#334),#516);
#525=PRODUCT_DEFINITION_CONTEXT('part definition',#530,'design');
#526=PRODUCT_DEFINITION('2026-05-02-12-13-51-155','(Unsaved)',#527,#525);
#527=PRODUCT_DEFINITION_FORMATION('',$,#532);
#528=PRODUCT_RELATED_PRODUCT_CATEGORY('(Unsaved)','(Unsaved)',(#532));
#529=APPLICATION_PROTOCOL_DEFINITION('international standard',
'automotive_design',2009,#530);
#530=APPLICATION_CONTEXT(
'Core Data for Automotive Mechanical Design Process');
#531=PRODUCT_CONTEXT('part definition',#530,'mechanical');
#532=PRODUCT('2026-05-02-12-13-51-155','(Unsaved)',$,(#531));
#533=PRESENTATION_STYLE_ASSIGNMENT((#534));
#534=SURFACE_STYLE_USAGE(.BOTH.,#535);
#535=SURFACE_SIDE_STYLE('',(#536));
#536=SURFACE_STYLE_FILL_AREA(#537);
#537=FILL_AREA_STYLE('Steel - Satin',(#538));
#538=FILL_AREA_STYLE_COLOUR('Steel - Satin',#539);
#539=COLOUR_RGB('Steel - Satin',0.627450980392157,0.627450980392157,0.627450980392157);
ENDSEC;
END-ISO-10303-21;
